<?xml version="1.0" encoding="utf-8"?>
<!-- Generator: Adobe Illustrator 24.0.2, SVG Export Plug-In . SVG Version: 6.00 Build 0)  -->
<svg version="1.1" xmlns="http://www.w3.org/2000/svg" xmlns:xlink="http://www.w3.org/1999/xlink" x="0px" y="0px"
	 viewBox="0 0 532 151" style="enable-background:new 0 0 532 151;" xml:space="preserve">
<style type="text/css">
	.st0{clip-path:url(#SVGID_4_);}
	.st1{fill:#E8E7DD;}
	.st2{opacity:0.58;fill:#DED9CD;enable-background:new    ;}
	.st3{opacity:0.92;fill:#FFFFFF;enable-background:new    ;}
	.st4{fill:#D4C9A8;}
	.st5{fill:#5895BF;}
	.st6{fill:#5595C0;}
	.st7{opacity:0.98;fill:#F3D170;enable-background:new    ;}
	.st8{fill:#FFFFFF;}
	.st9{fill:none;stroke:#162D4F;stroke-width:0.7628;stroke-linecap:round;stroke-miterlimit:10;}
	.st10{fill:#152D4F;}
	.st11{fill:#334765;}
	.st12{fill:#F3D170;}
	.st13{opacity:0.27;fill:#FFFFFF;enable-background:new    ;}
	.st14{fill:#F3D170;enable-background:new    ;}
	.st15{fill:#F3F5F7;}
	.st16{fill:#5695BF;}
	.st17{fill:#F3DA8C;}
	.st18{fill:#162D4F;}
	.st19{fill:#DED9CD;}
	.st20{clip-path:url(#SVGID_8_);}
	.st21{opacity:0.93;fill:#4096C6;enable-background:new    ;}
	.st22{fill:#E5E3D8;}
	.st23{fill:#1C305D;}
	.st24{fill:#E8E6DA;}
	.st25{fill:#61BDEA;}
	.st26{fill:#E7C450;}
	.st27{fill:#EFD065;}
	.st28{fill:#174375;}
	.st29{fill:#4096C6;}
	.st30{opacity:0.4;fill:#5895BF;enable-background:new    ;}
	.st31{fill:#E2E3E4;}
	.st32{opacity:0.73;fill:#FFFFFF;enable-background:new    ;}
	.st33{fill:#F9CE57;}
	.st34{opacity:0.66;fill:#FFFFFF;enable-background:new    ;}
	.st35{opacity:0.41;fill:#EFD065;enable-background:new    ;}
	.st36{opacity:0.41;fill:#FFFFFF;enable-background:new    ;}
	.st37{fill:#F5F5F4;}
	.st38{opacity:0.94;fill:#EFD065;enable-background:new    ;}
	.st39{opacity:0.84;fill:#61BDEA;enable-background:new    ;}
	.st40{clip-path:url(#SVGID_12_);}
	.st41{opacity:0.82;fill:none;stroke:#61BDEA;stroke-width:0.2194;stroke-miterlimit:10;enable-background:new    ;}
	.st42{fill:#345B86;}
	.st43{opacity:0.63;}
	.st44{fill:#FAD46C;}
	.st45{fill:#FFFFFF;enable-background:new    ;}
	.st46{fill:none;stroke:#4096C6;stroke-width:0.6583;stroke-miterlimit:10;}
	.st47{fill:#FBDB89;}
	.st48{opacity:0.92;fill:#4096C6;enable-background:new    ;}
	.st49{opacity:0.94;fill:#E7C450;enable-background:new    ;}
	.st50{fill:#57B7DD;}
	.st51{opacity:0.81;fill:#4096C6;enable-background:new    ;}
	.st52{opacity:0.77;fill:#4096C6;enable-background:new    ;}
	.st53{fill:#EFD065;enable-background:new    ;}
	.st54{clip-path:url(#SVGID_16_);}
	.st55{fill:#D2C7A6;}
	.st56{opacity:0.91;}
	.st57{fill:#F2F4F6;}
	.st58{fill:#E6E4D8;}
	.st59{fill:#FFFFFF;stroke:#5894BE;stroke-width:0.457;stroke-miterlimit:10;}
	.st60{opacity:0.37;fill:#4098C7;enable-background:new    ;}
	.st61{fill:none;stroke:#174375;stroke-width:0.8675;stroke-miterlimit:10;}
	.st62{fill:none;stroke:#4096C6;stroke-width:0.4338;stroke-miterlimit:10;}
	.st63{opacity:0.44;fill:#FFFFFF;stroke:#4096C6;stroke-width:0.4338;stroke-miterlimit:10;enable-background:new    ;}
	.st64{fill:url(#SVGID_17_);}
	.st65{fill:#4098C7;}
	.st66{fill:#05B204;}
	.st67{display:none;}
</style>
<g id="Original">
</g>
<g id="Idea_2">
	<g>
		<g>
			<defs>
				<rect id="SVGID_5_" x="0" y="-0.5" width="532" height="152"/>
			</defs>
			<use xlink:href="#SVGID_5_"  style="overflow:visible;fill:#E7C450;"/>
			<clipPath id="SVGID_2_">
				<use xlink:href="#SVGID_5_"  style="overflow:visible;"/>
			</clipPath>
		</g>
		<g>
			<defs>
				<rect id="SVGID_7_" x="17.26" y="2.5" width="507.06" height="149"/>
			</defs>
			<clipPath id="SVGID_4_">
				<use xlink:href="#SVGID_7_"  style="overflow:visible;"/>
			</clipPath>
			<g class="st0">
				<path class="st18" d="M398.62,109.47l1.86,6.1l16.03,37.5h-7.95l-12.72-20.54l-4.9-9.81l-7.16-0.66c0,0,5.96,14.05,5.7,14.31
					c-0.27,0.27-8.69,22.13-9.62,22.13c-0.93,0-8.8-1.46-8.8-1.46l3.8-21.54l-12.01-32.78L398.62,109.47z"/>
				<path class="st4" d="M412.4,77.54c0,0-0.27-1.46-0.13-1.99s1.19-1.59,1.19-1.59l0.53-2.39l1.72-3.05l0.93,0.53
					c0,0,0.53,1.72,0.13,2.39c-0.4,0.8-1.19,2.39-1.19,2.78c0,0.4,1.33,0.53,1.72,0.66C417.7,74.89,412.4,77.54,412.4,77.54z"/>
				<path class="st10" d="M375.43,57.67c3.84-0.8,6.63-3.58,6.63-3.58l5.57,17.49l13.12,38.69l-37.23-0.93l-1.33-46.24L375.43,57.67
					z"/>
				<path class="st21" d="M374.5,81.52c5.04-1.99,12.46,2.12,15.64,0.66s8.35-10.07,10.87-11.13c2.52-1.19,6.1-2.52,6.1-2.52
					l0.66,2.52c0,0-7.95,8.22-4.64,16.3c4.11,10.34,13.91,9.14,13.91,9.14l-0.13,2.39c-5.83,4.9-12.99,0.8-18.95,4.24
					c-6.36,3.71-2.39,10.6-11.79,14.58s-20.14-1.46-22.13-11.13C362.18,96.89,362.84,86.15,374.5,81.52z"/>
				<path class="st21" d="M431.74,66.54c-0.13-0.53-0.8-1.99-0.8-1.99l0.8-1.33c2.12-0.8,10.47-2.52,13.52-2.92
					c2.78-0.27,3.71,0.13,4.11,1.19c0.53,1.06,0.27,2.25-0.8,2.78c-1.06,0.53-2.65-0.13-2.65-0.13l-10.07,7.69h-1.46L431.74,66.54z"
					/>
				<polygon class="st22" points="379.8,94.24 377.81,95.56 377.41,98.08 382.45,105.1 384.44,105.5 386.16,104.31 				"/>
				<polygon class="st22" points="432.14,65.88 390.8,89.6 394.24,95.03 434.13,69.86 				"/>
				
					<ellipse transform="matrix(0.9857 -0.1685 0.1685 0.9857 -4.5475 74.1743)" class="st8" cx="434.78" cy="63.88" rx="0.53" ry="0.53"/>
				
					<ellipse transform="matrix(0.9857 -0.1685 0.1685 0.9857 -4.4514 74.5253)" class="st8" cx="436.9" cy="63.49" rx="0.53" ry="0.53"/>
				
					<ellipse transform="matrix(0.9857 -0.1685 0.1685 0.9857 -4.377 74.8818)" class="st8" cx="439.04" cy="63.23" rx="0.53" ry="0.53"/>
				
					<ellipse transform="matrix(0.9857 -0.1685 0.1685 0.9857 -4.2754 75.2544)" class="st8" cx="441.28" cy="62.82" rx="0.53" ry="0.53"/>
				
					<ellipse transform="matrix(0.9857 -0.1685 0.1685 0.9857 -4.1793 75.6053)" class="st8" cx="443.4" cy="62.43" rx="0.53" ry="0.53"/>
				
					<ellipse transform="matrix(0.9857 -0.1685 0.1685 0.9857 -4.0931 75.9514)" class="st8" cx="445.48" cy="62.09" rx="0.53" ry="0.53"/>
				<path class="st4" d="M379.8,86.29l7.69,3.58c0,0,5.7-0.66,6.63-0.8c0.93-0.13,1.99,1.46,2.78,2.39c0.8,0.93,3.71,6.36,3.71,6.36
					l-1.72,0.8l-2.39-2.12l0.4,1.72l-1.99,1.72l-0.93-1.19l-0.13,1.72l-2.52,0.13l-2.78-0.66l-2.92-4.11l-2.12-0.26l-10.34-4.9
					L379.8,86.29z"/>
				<path class="st4" d="M375.43,57.67c5.7-0.93,10.2-7.16,10.87-8.75c0.66-1.72,0-3.45,0.93-5.17c1.06-1.72,1.59-1.72,1.99-3.05
					c0.4-1.46,1.33-9.94-1.19-11.4c-2.52-1.59-7.69-7.29-11.79-4.77c-4.11,2.52-10.6,13.78-10.6,13.78s1.06,9.54,2.92,11.93
					C370.26,52.63,375.43,57.67,375.43,57.67z"/>
				<path class="st10" d="M372.51,47.6c4.11,1.46,3.58,12.46,3.58,12.46l-4.24,20.01l9.81,6.49l-5.17,7.29
					c0,0-17.09-5.17-17.49-9.67c-0.4-4.51,4.37-32.07,4.64-32.73C363.9,50.64,367.61,45.87,372.51,47.6z"/>
				<path class="st16" d="M379.67,15.66c-1.46-0.93-4.9-2.25-5.7-3.31c-0.8-1.19,0.8,2.25,1.33,2.52c0.53,0.27-7.69,0.53-7.69,0.53
					l0.66,1.06l-3.71,0.93l-3.71,2.52c0,0-1.72,5.3-1.99,5.57c-0.27,0.27,2.52,0,2.52,0l-3.31,6.23l2.65,0.93
					c0,0-0.13,5.96-0.13,6.1c0,0.13,4.11,2.39,4.11,2.65c0,0.4,0.53,5.04,0.53,5.04l1.72,2.25c0,0,1.72-0.93,1.72-1.06
					c0-0.13,0.4-3.71,0.4-3.71s-0.4,0.27-1.06,0.13c-0.66-0.13-2.92-5.43-0.93-6.76s2.92,1.06,2.92,1.06l0.4,2.78
					c0,0,0.53,0.8,0.53,0.66c0-0.13,0.66-1.33,0.66-1.33s0.8,2.12,1.86,2.12c0.93,0.13,0.93,0.13,0.93,0.13s-0.93-2.92-0.8-4.37
					c0.13-1.59,1.72-3.58,1.72-3.58l1.19,1.72l0.8-2.52c0,0,0.93,1.19,1.19,0.4c0.13-0.8,1.72-3.58,1.72-3.58l1.46,3.98l0.53-0.4
					l0.8,4.11c0,0,0.8-1.72,0.8-1.86c0-0.13,1.72-6.1,1.72-6.1l2.25,5.3c0,0,0,2.39,0.27,2.12c0.13-0.13,0.8-2.39,0.8-2.39
					l0.93,2.52l-0.4,2.52c0,0,0.13,1.59,0.13,1.46c0.13-0.13,1.59-3.31,1.59-3.31s1.86,3.05,1.99,3.18c0,0.13-0.13-2.52,0.13-2.39
					s1.72,2.12,1.72,1.46c0-0.53-0.53-3.58-0.53-3.58s-1.19-5.3-1.33-5.57c-0.13-0.13-2.39-6.49-2.65-7.16
					c-0.27-0.53,1.46,0.93,1.46,0.93l-1.59-2.92l0.66-0.66l-3.71-2.52l-0.66-5.83c0,0-1.19,1.46-1.33,1.59
					c-0.13,0.13-0.93-3.58-0.93-3.84c0-0.27-2.12,3.45-2.12,3.31s-0.53-2.39-0.53-2.39s-0.66-0.53-1.06-0.53
					c-0.4,0-2.65,0.4-2.65,0.4l1.86,0.8L379.67,15.66z"/>
				<path class="st18" d="M385.89,44.15c0,0.53-0.4,1.06-1.06,1.06c-0.66,0-1.06-0.4-1.06-1.06S385.89,43.62,385.89,44.15z"/>
				<path class="st18" d="M377.41,41.37c0,0.53-0.4,1.06-1.06,1.06s-1.06-0.4-1.06-1.06S377.41,40.84,377.41,41.37z"/>
				<path class="st4" d="M410.14,84.96l2.78-0.93c0,0,0.53,0.53,0.8,0.66s4.77,0.4,5.43-0.13s3.05-1.59,3.45-1.86
					c0.53-0.26,0.53-1.46,0.53-1.46v-1.06l-0.8-0.53l0.27-1.19l-0.8-0.26l0.27-1.06l-0.8-0.8l-2.65-1.86c0,0-0.8,0.93-0.13,1.46
					c0,0-1.46-0.4-1.72-0.4c-0.26,0-1.72,0.4-1.72,0.4s0,0.93,0.53,1.19c0.53,0.13,2.78,0.53,2.78,0.53l-1.99,0.13l-1.59,0.8
					l-0.13,0.8l-1.19,0.4c0,0-0.13,0.8,0.53,1.06c0.66,0.27,2.25,0.4,2.25,0.4L410.14,84.96z"/>
				<path class="st23" d="M252.13,43.22c-0.8,4.37-5.83,13.65-1.99,14.31s29.15,5.83,28.89,7.95c-0.26,2.12,3.71-11.26-2.65-15.37
					c-5.3-3.45-4.24-11.93-10.73-11.66C261.93,38.59,252.13,43.22,252.13,43.22z"/>
				<polygon class="st24" points="253.19,53.43 255.44,52.76 255.44,48.52 264.32,47.6 264.72,51.97 267.63,52.37 264.85,69.46 
					260.08,72.64 				"/>
				<polygon class="st24" points="286.98,83.77 289.36,102.72 289.36,119.54 279.56,94.37 282.34,83.9 				"/>
				<path class="st5" d="M253.19,53.43c-4.11,1.33-7.69,5.83-9.54,7.16c-1.06,0.8-8.08,13.12-9.54,23.85c0,0,7.69,0.53,7.95,1.86
					c0.93,4.9,1.72,11.26,1.72,11.26l-9.01,35.11c0,0,60.02-2.52,60.02-2.65c0-4.37-12.72-34.05-12.85-35.25
					c-0.13-2.78,0.13-4.11,1.86-10.2c0.13-0.26,4.51-0.53,4.51-0.66c0-0.4-4.24-18.82-4.9-20.67c-0.93-2.78-9.94-8.61-9.94-8.61
					l-5.7-2.25l-6.23,15.37L253.19,53.43z"/>
				<path class="st25" d="M264.98,86.82c0,0-0.13-13.12,5.43-14.05c0.66-0.13,0.93,0.13,0.93,0.13s6.63-1.72,6.23,21.73
					c0,0.93-0.4,1.06-0.53,1.06c-0.27,0.13-2.12,0.26-2.12,0.26v-0.93c0,0,0.4,0,0.93,0c0.53-0.13,1.19-0.53,1.06-1.33
					c0-0.8,0.27-20.54-5.96-20.14c-6.23,0.4-4.9,13.65-4.9,14.31s-1.06,0.8-1.06,0.8V86.82z"/>
				<polygon class="st26" points="246.96,92.91 253.59,125.11 276.77,121.93 269.62,86.02 253.06,91.06 				"/>
				<path class="st18" d="M255.57,91.85l7.16-1.86l-0.27-1.86c0,0-0.4-1.99-1.59-1.59c-1.19,0.4-1.86,1.19-2.12,0.8
					c-0.26-0.4-0.26-2.39-1.72-1.86c-1.46,0.53-0.13,2.12-0.53,2.78c-0.27,0.4-1.06,0.4-1.86,0.53s-0.8,0.4-0.66,1.46
					C254.38,91.06,255.57,91.85,255.57,91.85z"/>
				<path class="st24" d="M235.43,84.3c0,0.53-1.06,25.84-1.06,25.84s9.28,0.8,11.93,2.12s7.55,2.39,7.55,2.39s8.75,2.92,8.88,1.33
					c0.13-1.06-7.02-3.31-7.02-3.31s8.22,0.53,8.48-0.93c0.13-1.46-8.61-2.39-8.61-2.39s9.41-2.39,9.41-4.11
					c0-1.72-9.67,0.93-9.67,0.93s7.69-2.65,7.69-4.51s-13.65,1.99-13.65,1.99l-0.4-2.52l-2.65,3.31l-2.78-2.25l0.13-4.51
					l-1.46-11.93L235.43,84.3z"/>
				<circle class="st25" cx="256.24" cy="82.05" r="3.18"/>
				<circle class="st27" cx="256.24" cy="81.91" r="1.59"/>
				<path class="st28" d="M251.47,54.09c0,0.13-5.17,10.6,3.18,24.25l1.06-0.53l0.4,0.8l-3.05,1.59l-0.4-0.93l0.93-0.53
					c-7.82-13.25-4.11-23.45-3.71-24.25C250.54,53.29,251.73,53.16,251.47,54.09z"/>
				<path class="st28" d="M271.34,72.9c1.33-12.72,0.66-18.15,0.13-18.95c-0.53-1.06-1.59-1.19-1.46-0.27
					c0,0.13,1.86,0.4,0.27,18.95L271.34,72.9z"/>
				<polygon class="st28" points="255.31,79.13 256.63,81.65 255.57,82.18 254.25,79.53 				"/>
				<path class="st18" d="M275.18,95.3c-0.26-1.06-1.72-0.93-1.72-0.66c-0.13,0.26-0.27,1.86,0.13,1.86c0.53,0,1.59-0.26,1.72-0.53
					C275.18,95.83,275.18,95.3,275.18,95.3z"/>
				<path class="st5" d="M235.96,132.26c-0.66,2.12,1.51,19.85,2.04,22.24s-2.96,3.2-2.96,3.2l29.96-3.2v-14h1l3,15l27-2
					c0,0-2.87,1.25-3-1s0.2-22.89,0.2-22.89L235.96,132.26z"/>
				<path class="st24" d="M243.91,34.61c0.26,4.9,8.88,15.5,15.64,14.84c6.49-0.66,12.99-8.75,12.99-16.03s-10.47-17.49-14.84-16.83
					C253.32,17.25,243.25,23.21,243.91,34.61z"/>
				<path class="st23" d="M256.63,19.37c0.4,2.25-0.93,4.37-1.72,5.04c-2.65,2.39-11.4,5.96-11,10.34c0.4,4.37,2.52,5.43,2.78,6.63
					s-5.3-1.59-6.49-6.36c-1.19-4.77,7.16-27.16,13.25-27.43c6.1-0.27,3.58,1.46,3.58,1.46s3.98-1.72,6.36-0.66
					c2.39,1.06,10.87,8.61,13.12,24.38c0.13,0.66-1.86,4.51-4.24,3.98c0-1.46,0.13-1.59,0.27-3.58s-3.71-1.19-7.29-2.92
					c-4.11-1.99-7.29-8.88-7.29-8.88L256.63,19.37z"/>
				<path class="st23" d="M265.25,47.07c-1.86,1.46-5.3,1.72-7.02,1.59c4.11,1.33,5.83,0.13,6.23,1.19
					C265.38,52.37,265.25,47.07,265.25,47.07z"/>
				<path class="st24" d="M247.76,36.86c0,1.06-0.53,3.18-1.86,3.18s-3.05-2.12-3.05-3.18c0-1.06,1.46-0.8,2.52-1.99
					C246.3,33.95,247.76,35.8,247.76,36.86z"/>
				<path class="st24" d="M269.35,36.2c0,1.06,0.53,3.18,1.86,3.18c1.33,0,3.05-2.12,3.05-3.18c0-1.06-1.46-0.8-2.52-1.99
					C270.81,33.15,269.35,35.01,269.35,36.2z"/>
				<circle class="st29" cx="252.53" cy="36.2" r="1.33"/>
				<circle class="st29" cx="264.19" cy="35.4" r="1.33"/>
				<path class="st29" d="M254.91,42.3l8.61-0.4c0,0-2.78,1.59-4.24,1.72C257.96,43.75,254.91,42.3,254.91,42.3z"/>
				<path class="st30" d="M235.96,132.26c-0.13,0.66,0.57,2.25,0.04,4.24l57,1c-0.13-2.25,0.2-8.02,0.2-8.02L235.96,132.26z"/>
				<path class="st5" d="M136.95,20.03c5.43,0.53,11.26,5.04,10.6,9.28c5.17-2.25,9.94,3.18,6.49,7.95c3.45,0,3.18,3.98,2.12,4.51
					c2.39,0.53,4.51,5.43-0.26,6.89c-4.77,1.46,1.86,7.16-3.71,9.81c-5.96,2.92-6.89,6.76-9.81,6.63
					c-5.04-0.26-15.11-4.64-16.43-3.31c-1.46,1.46-3.71,1.72-6.36,1.06c0,0-5.43-1.99-5.43-9.28c0,0-7.42,0.13-9.54-9.54
					c-2.12-9.67,4.77-11.4,6.36-11.26c-1.86-3.45,2.39-7.82,5.7-6.49c-1.86-4.77,3.84-12.59,8.48-4.9
					C131.12,17.91,136.95,20.03,136.95,20.03z"/>
				<path class="st8" d="M136.42,66.01c11.13-0.4,17.23,3.18,17.23,3.18l16.64,32.43l0.37,3.91l-2.59,2.35l-4.26,1.06l4.72,45.05
					l-55.3,0.52l9.41-32.46l-0.53-26.63c0,0-2.12,10.2-2.39,12.72c-0.4,2.65-6.63,7.29-7.69,7.69c-1.19,0.4-4.51-1.86-4.51-1.86
					L96.41,88.54l11.79-3.45l4.51,6.63l5.83-16.96c0,0,6.89-6.89,9.81-7.95C131.26,65.75,136.42,66.01,136.42,66.01z"/>
				<path class="st28" d="M128.87,65.88l0.13,4.77c0,0-1.86,12.72,1.59,13.65c3.45,0.93,12.46-2.92,13.12-4.9
					c0.66-1.99,0.53-11.53,0.27-11.66c-0.27-0.13-2.65-2.25-2.65-2.25l-0.26-4.11l-11.26,0.13L128.87,65.88z"/>
				<path class="st28" d="M146.89,99.14c-1.59-0.4-2.12-0.26-3.18-0.53c-1.06-0.26-3.31,1.06-4.11,1.19s-4.11,0.13-4.64,0
					c-0.53-0.26-0.66,1.72,0.4,2.52c1.19,0.8,2.52,1.19,3.71,1.19s6.63,0.53,7.29,0.13c0.27-0.13,2.12-0.53,2.12-0.93
					C148.48,102.32,146.89,99.14,146.89,99.14z"/>
				<path class="st25" d="M137.48,95.56l0.53,11.79c0,0-6.89,13.12-8.22,15.24s-5.43,8.88,0.53,8.08c5.96-0.8,20.67-3.05,24.78-3.58
					c4.11-0.53,3.45-3.58,1.19-5.96c-2.25-2.39-12.59-15.24-12.59-15.24l-1.06-10.47c0,0,1.72,0,1.72-1.19s-1.59-2.25-4.24-2.12
					c-2.65,0.13-4.77,0.26-4.77,1.86C135.36,95.3,137.48,95.56,137.48,95.56z"/>
				<path class="st28" d="M146.63,99.01c1.86,0,4.11-0.93,5.7,1.19c1.59,2.12,2.65,3.18,2.65,4.9s-0.66,5.17-1.06,6.23
					c-0.53,1.46-3.31,3.58-3.31,3.58s-3.31,7.82-5.17,7.55c-1.86-0.4,2.39-7.95,2.78-8.48c-1.06,0.53-5.7,6.76-7.16,6.23
					c-1.86-0.8,3.71-7.82,4.24-8.22c-1.72,1.06-11.13,3.71-11.79,1.59c-0.66-2.25,11.26-5.43,11.26-5.43s-8.35,2.39-8.75-0.13
					c-0.66-2.92,3.18-2.25,8.08-3.31C148.61,103.38,146.63,99.01,146.63,99.01z"/>
				<path class="st22" d="M97.2,68.13c0,0,9.81,31.14,10.87,34.05c1.06,2.92,7.55,3.31,5.83-2.25s-10.34-34.05-10.34-34.05
					s1.46-1.19,1.19-2.25c-0.27-1.06-1.46-2.12-5.96-0.53c-4.51,1.59-5.17,3.18-4.77,4.24C94.68,68.53,97.2,68.13,97.2,68.13z"/>
				<path class="st31" d="M141.46,65.35l0.8,2.78c0,0-0.8,7.42-9.28,20.01c15.37-6.76,15.5-8.22,15.37-8.48
					c-0.13-0.4-2.92-7.29-2.92-7.29l3.18-2.52l-3.84-3.98l-3.45-0.66L141.46,65.35z"/>
				<path class="st27" d="M128.61,70.78c0,0,3.18,16.03,4.24,17.23c1.06,1.19,8.48-13.91,9.14-18.55c-1.86,1.59-4.11,2.12-6.89,1.99
					c-3.45-0.13-5.83-2.52-5.83-2.52L128.61,70.78z"/>
				<path class="st31" d="M133.24,89.07c0,0-4.51-20.54-4.24-21.07c0.13-0.66,0.4-1.33,0.4-1.33l-0.8-0.8l-1.59,1.19l-3.18,5.96
					l2.65,1.59l-2.92,4.24l8.88,10.6c0,0-0.13,8.88-0.13,8.61C132.58,97.81,133.24,89.07,133.24,89.07z"/>
				<path class="st28" d="M117.74,47.07c0.27,4.24,0.4,4.51,0.66,5.17c0.4,0.66,1.46,1.72,1.46,2.25c0,0.53-0.27,1.59,0.4,3.18
					c0.66,1.59,4.24,9.67,12.99,8.88c8.88-0.8,13.91-10.07,14.05-12.85c0.13-2.78,2.25-18.29-6.49-19.21
					c-8.75-0.93-18.82,2.39-20.8,4.37C118,40.84,117.74,47.07,117.74,47.07z"/>
				<path class="st32" d="M116.28,50.78c1.86-1.06,7.29-2.39,9.81-2.12c2.52,0.27,4.11-0.4,5.43-0.93c1.33-0.53,7.95-0.93,9.81-0.93
					c1.19,0,2.12-0.53,2.12-0.53l0.66,2.25l-2.25,0.4c0,0,1.19,6.89-5.17,7.29c-6.23,0.4-5.43-5.17-8.22-4.77
					c-2.78,0.4-1.72,5.7-6.1,6.23C117.87,58.06,117.34,56.21,116.28,50.78z"/>
				<circle class="st33" cx="135.89" cy="53.43" r="1.33"/>
				<circle class="st33" cx="122.11" cy="54.62" r="1.33"/>
				<path class="st5" d="M134.83,38.06c0.13,3.18-1.06,7.69-4.51,8.08s-6.76,0.13-7.02-0.4c-0.4,0.66-0.93,2.39-2.92,2.65
					c-2.12,0.27-3.18,0.13-3.18,0.13s-6.1,1.99-6.76-5.17c-0.8-7.29,14.18-13.91,21.6-11.93c7.55,1.86,12.85,1.59,15.11,5.17
					c2.12,3.45,0.8,11.26,1.19,13.38c0.4,2.12,0.93,4.24-0.66,4.51s-2.78-2.65-3.58-2.65c-0.8,0-0.93-1.86-0.13-3.18
					c0.66-1.19-1.19,0.27-1.99-2.52C140,46.54,136.56,46.14,134.83,38.06z"/>
				<circle class="st34" cx="108.86" cy="91.45" r="1.33"/>
				<path class="st5" d="M141.33,63.23c-1.46,1.19-4.77,3.31-7.95,3.31c4.77,0.53,7.69-3.05,7.95-1.86
					C141.46,64.82,141.33,63.23,141.33,63.23z"/>
				<circle class="st35" cx="92.03" cy="50.38" r="2.65"/>
				<circle class="st36" cx="98.66" cy="59.12" r="0.93"/>
				<circle class="st36" cx="92.43" cy="57.4" r="1.46"/>
				
					<ellipse transform="matrix(0.9493 -0.3145 0.3145 0.9493 -15.4252 34.5846)" class="st37" cx="99.47" cy="65.1" rx="3.98" ry="1.19"/>
				<circle class="st34" cx="110.19" cy="94.5" r="0.53"/>
				<path class="st34" d="M108.99,95.3c0,0.26-0.93,0.26-0.93,0c0-0.27,0.27-0.53,0.53-0.53C108.73,94.77,108.99,95.03,108.99,95.3z
					"/>
				<circle class="st34" cx="107.8" cy="93.97" r="0.27"/>
				<path class="st28" d="M93.67,78.02c-2.39,4.77-3.45,9.41,1.33,12.06c2.25,1.19,4.11,1.06,6.63,0.66
					c2.52-0.26,11.13-1.59,10.87-3.18c-0.26-1.59-8.48,0.26-8.48,0.26s10.07-4.9,9.28-6.63c-0.66-1.72-10.87,2.92-10.87,2.92
					s9.14-5.43,8.35-6.63c-0.8-1.19-10.07,2.65-10.07,2.65s9.54-5.83,8.88-6.89c-0.66-1.19-9.81,2.92-9.81,2.92l-0.66-1.99
					C99.24,74.05,95.26,74.98,93.67,78.02z"/>
				<path class="st38" d="M154.97,121.53c1.06,1.19,2.39,3.84-0.93,4.51c-3.84,0.66-16.96,2.65-22.53,3.31
					c-4.51,0.53-1.46-4.64-0.13-7.16c0.93,0.93,3.31,1.72,5.3,0.8c1.59-0.66,3.31,1.19,6.1,0.8c2.78-0.4,5.3-0.93,7.02-1.33
					C153.25,121.66,154.97,121.53,154.97,121.53z"/>
				<path class="st39" d="M106.51,95.3c0,0,1.33,4.24,2.12,6.63c0.8,2.39,6.1,2.65,4.64-1.86c-1.33-4.51-1.59-5.17-1.59-5.17"/>
				<path class="st25" d="M111.68,94.9c0,0.4-1.06,0.8-2.52,0.93c-1.46,0.13-2.65-0.26-2.65-0.53c0-0.4,1.06-0.53,2.52-0.66
					S111.54,94.63,111.68,94.9z"/>
			</g>
		</g>
	</g>
</g>
<g id="Layer_4" class="st67">
</g>
</svg>
