<?xml version="1.0" encoding="utf-8"?>
<!-- Generator: Adobe Illustrator 24.0.2, SVG Export Plug-In . SVG Version: 6.00 Build 0)  -->
<svg version="1.1" xmlns="http://www.w3.org/2000/svg" xmlns:xlink="http://www.w3.org/1999/xlink" x="0px" y="0px"
	 viewBox="0 0 532 151" style="enable-background:new 0 0 532 151;" xml:space="preserve">
<style type="text/css">
	.st0{clip-path:url(#SVGID_4_);}
	.st1{fill:#E8E7DD;}
	.st2{opacity:0.58;fill:#DED9CD;enable-background:new    ;}
	.st3{opacity:0.92;fill:#FFFFFF;enable-background:new    ;}
	.st4{fill:#D4C9A8;}
	.st5{fill:#5895BF;}
	.st6{fill:#5595C0;}
	.st7{opacity:0.98;fill:#F3D170;enable-background:new    ;}
	.st8{fill:#FFFFFF;}
	.st9{fill:none;stroke:#162D4F;stroke-width:0.7628;stroke-linecap:round;stroke-miterlimit:10;}
	.st10{fill:#152D4F;}
	.st11{fill:#334765;}
	.st12{fill:#F3D170;}
	.st13{opacity:0.27;fill:#FFFFFF;enable-background:new    ;}
	.st14{fill:#F3D170;enable-background:new    ;}
	.st15{fill:#F3F5F7;}
	.st16{fill:#5695BF;}
	.st17{fill:#F3DA8C;}
	.st18{fill:#162D4F;}
	.st19{fill:#DED9CD;}
	.st20{clip-path:url(#SVGID_8_);}
	.st21{opacity:0.93;fill:#4096C6;enable-background:new    ;}
	.st22{fill:#E5E3D8;}
	.st23{fill:#1C305D;}
	.st24{fill:#E8E6DA;}
	.st25{fill:#61BDEA;}
	.st26{fill:#E7C450;}
	.st27{fill:#EFD065;}
	.st28{fill:#174375;}
	.st29{fill:#4096C6;}
	.st30{opacity:0.4;fill:#5895BF;enable-background:new    ;}
	.st31{fill:#E2E3E4;}
	.st32{opacity:0.73;fill:#FFFFFF;enable-background:new    ;}
	.st33{fill:#F9CE57;}
	.st34{opacity:0.66;fill:#FFFFFF;enable-background:new    ;}
	.st35{opacity:0.41;fill:#EFD065;enable-background:new    ;}
	.st36{opacity:0.41;fill:#FFFFFF;enable-background:new    ;}
	.st37{fill:#F5F5F4;}
	.st38{opacity:0.94;fill:#EFD065;enable-background:new    ;}
	.st39{opacity:0.84;fill:#61BDEA;enable-background:new    ;}
	.st40{clip-path:url(#SVGID_12_);}
	.st41{opacity:0.82;fill:none;stroke:#61BDEA;stroke-width:0.2194;stroke-miterlimit:10;enable-background:new    ;}
	.st42{fill:#345B86;}
	.st43{opacity:0.63;}
	.st44{fill:#FAD46C;}
	.st45{fill:#FFFFFF;enable-background:new    ;}
	.st46{fill:none;stroke:#4096C6;stroke-width:0.6583;stroke-miterlimit:10;}
	.st47{fill:#FBDB89;}
	.st48{opacity:0.92;fill:#4096C6;enable-background:new    ;}
	.st49{opacity:0.94;fill:#E7C450;enable-background:new    ;}
	.st50{fill:#57B7DD;}
	.st51{opacity:0.81;fill:#4096C6;enable-background:new    ;}
	.st52{opacity:0.77;fill:#4096C6;enable-background:new    ;}
	.st53{fill:#EFD065;enable-background:new    ;}
	.st54{clip-path:url(#SVGID_16_);}
	.st55{fill:#D2C7A6;}
	.st56{opacity:0.91;}
	.st57{fill:#F2F4F6;}
	.st58{fill:#E6E4D8;}
	.st59{fill:#FFFFFF;stroke:#5894BE;stroke-width:0.457;stroke-miterlimit:10;}
	.st60{opacity:0.37;fill:#4098C7;enable-background:new    ;}
	.st61{fill:none;stroke:#174375;stroke-width:0.8675;stroke-miterlimit:10;}
	.st62{fill:none;stroke:#4096C6;stroke-width:0.4338;stroke-miterlimit:10;}
	.st63{opacity:0.44;fill:#FFFFFF;stroke:#4096C6;stroke-width:0.4338;stroke-miterlimit:10;enable-background:new    ;}
	.st64{fill:url(#SVGID_17_);}
	.st65{fill:#4098C7;}
	.st66{fill:#05B204;}
	.st67{display:none;}
</style>
<g id="Original">
</g>
<g id="Idea_2">
	<g>
		<g>
			<defs>
				<rect id="SVGID_1_" x="0" y="0" width="532" height="151"/>
			</defs>
			<use xlink:href="#SVGID_1_"  style="overflow:visible;fill:#61BDEA;"/>
			<clipPath id="SVGID_2_">
				<use xlink:href="#SVGID_1_"  style="overflow:visible;"/>
			</clipPath>
		</g>
		<g>
			<defs>
				<rect id="SVGID_3_" x="24" width="500.28" height="151"/>
			</defs>
			<clipPath id="SVGID_4_">
				<use xlink:href="#SVGID_3_"  style="overflow:visible;"/>
			</clipPath>
			<g class="st0">
				<path class="st2" d="M226.49,14.49c0,0,3.42,120.37,5.43,120.37c2.01,0,157.35,0,159.76,0S387.86,15.1,385.25,15.1
					S226.49,14.49,226.49,14.49z"/>
				<path class="st3" d="M224.28,12.49c0,0,3.42,120.37,5.43,120.37c2.01,0,157.35,0,159.76,0c2.21,0-3.82-119.77-6.43-119.77
					C380.63,13.09,224.28,12.49,224.28,12.49z"/>
				<path class="st4" d="M212.63,149.54c0,0-3.62,24.52-3.82,25.52c0,1.21,2.21,6.63,3.82,7.23c1.41,0.6,1.81,1.41,0.2-0.2
					c-0.6-0.6-1.21,2.81-3.01,2.01c-2.41-1.41-6.03-7.23-5.83-7.64c0.2-0.6,1.41-1.21,1.61-3.22c0.4-4.82-4.02-20.3-3.22-24.52
					s2.01-6.03,4.62-6.23C209.61,142.3,212.63,144.11,212.63,149.54z"/>
				<circle class="st6" cx="139.48" cy="8.87" r="18.89"/>
				<circle class="st7" cx="137.47" cy="7.86" r="18.89"/>
				<circle class="st8" cx="137.47" cy="7.86" r="16.68"/>
				<polyline class="st9" points="139.48,-3.39 139.48,8.87 130.64,8.87 				"/>
				<path class="st10" d="M196.95,31.78c5.22,0.4,8.64,1,10.45,11.45c2.01,11.45,10.45,8.84,12.06,14.47
					c1.21,4.22-3.62,6.03-0.2,15.07c2.01,5.43-0.8,7.84-8.84,8.84c-8.04,1-22.31,1.21-22.51-9.65c-0.2-10.85,0-4.82,0-9.65
					c0-6.43-8.64-5.43-7.84-13.46c0.6-6.03,5.43-5.02,7.23-11.25C189.32,31.98,194.95,31.78,196.95,31.78z"/>
				<path class="st4" d="M187.71,148.93c0,0,3.62,24.52,3.82,25.52c0,1.21-2.21,3.22-3.62,4.02s-3.01,2.01-4.42,2.41
					c-1.41,0.6,2.41,2.21,4.02,0.6c1.61-1.61,9.04-5.02,8.84-5.63c-0.2-0.6-1.41-1.21-1.61-3.22c-0.4-4.82,4.02-20.3,3.22-24.52
					c-0.8-4.22-2.01-6.03-4.62-6.23C190.73,141.7,187.71,143.51,187.71,148.93z"/>
				<path class="st4" d="M148.12,28.76c-2.61,3.22-2.21,16.28,2.41,19.49c1,0.6,13.66,15.67,15.88,17.68
					c1.41,1.21,13.46,5.02,19.89,6.43c3.01-3.22,7.84-7.23,5.02-8.64c-2.81-1.61-19.89-1.21-22.31-2.41
					c-11.05-6.03-15.88-13.87-15.88-13.87l1.61-13.66c-2.21-0.6-3.01,3.82-3.01,3.82S149.13,27.56,148.12,28.76z"/>
				<path class="st4" d="M195.55,59.71c-0.8,4.42-2.01,3.42-3.01,3.42c-1.61,0-3.82,29.14,4.02,27.53
					c7.84-1.41,12.66-9.85,10.25-16.88s-5.43-10.25-6.23-12.26C199.57,59.51,195.55,59.71,195.55,59.71z"/>
				<path class="st4" d="M203.79,62.32c2.01-0.2,3.62,0.4,5.02,1.21c1.61,0.8,9.65,12.26,12.86,13.87
					c3.22,1.61,20.9,9.24,24.52,9.24c3.62,0,9.44-5.22,10.45-5.83c0.4,1.21-1,3.01-1.41,3.62c5.43-0.4,10.65-1.21,11.45-0.6
					c0.8,0.6-6.63,6.43-9.44,6.83c-2.61,0.4-10.45-0.4-11.66-1.41c-1.21-1.21-26.53-5.02-26.93-5.43
					c-0.4-0.6-12.06-9.04-12.86-11.66c-1-2.61-3.62-8.24-3.22-9.04C203.18,62.32,203.79,62.32,203.79,62.32z"/>
				<path class="st14" d="M190.73,63.13c0,0-6.63,10.85-7.23,15.47c-0.8,7.64,9.44,6.63,5.63,15.67
					c-4.02,8.84-10.85,10.45-10.65,16.88c0.4,6.23,9.04,42.2,9.04,42.2l26.12-2.21c0,0,7.03-31.95,6.23-45.42
					c-0.6-9.44-8.44-7.84-8.84-13.87c-0.6-7.84,4.42-6.63,4.22-12.26c-0.2-5.43-10.65-10.45-11.45-17.08h-3.01
					c0,0,4.82,20.9-2.61,20.7c-7.44-0.2-4.62-20.1-4.62-20.1H190.73z"/>
				<g>
					<path class="st15" d="M190.73,63.13c0,0-6.63,10.85-7.23,15.47c-0.8,7.64,9.44,6.63,5.63,15.67
						c-4.02,8.84,22.51,3.62,21.9-2.61c-0.6-7.84,4.42-6.63,4.22-12.26c-0.2-5.43-10.65-10.45-11.45-17.08h-3.01
						c0,0,4.82,20.9-2.61,20.7c-7.44-0.2-4.62-19.89-4.62-19.89H190.73z"/>
				</g>
				<path class="st5" d="M186.3,99.3c0.8-1.21,2.61-4.82,2.61-4.42c-1.61,8.44,22.31,2.41,22.1-3.01c0,0,0,1,0.8,2.21
					c0.4,0.8,1,1.21,1,1.21C210.42,99.5,190.52,113.97,186.3,99.3z"/>
				<path class="st4" d="M189.72,42.23c-2.01,10.65-2.61,18.89,5.83,18.89c8.24,0,7.03-4.22,7.23-6.23c0.2-2.01-3.22-1.61-3.42-8.24
					C199.17,40.82,189.72,42.23,189.72,42.23z"/>
				<path class="st12" d="M240.96,83.22c-1-0.2-2.01,2.01-2.61,4.62s-0.2,5.02,0.6,5.02c1,0.2,2.01-0.6,2.61-3.42
					C242.17,86.84,241.97,83.42,240.96,83.22z M241.37,89.05c-0.2,1.41-0.8,2.01-1.61,2.01s-0.8-1.81-0.6-3.42
					c0.2-2.21,1-3.82,1.61-3.82C241.57,84.02,241.77,86.84,241.37,89.05z"/>
				<polygon class="st4" points="240.76,85.23 242.57,85.83 242.57,88.24 240.56,87.84 				"/>
				<rect x="270.91" y="72.17" class="st16" width="12.86" height="30.34"/>
				<rect x="311.5" y="75.18" class="st16" width="12.86" height="27.33"/>
				<rect x="351.29" y="82.82" class="st16" width="12.86" height="19.69"/>
				<rect x="291.4" y="47.05" class="st17" width="12.86" height="55.26"/>
				<rect x="330.99" y="61.52" class="st17" width="12.86" height="40.99"/>
				<g>
					<g>
						<g>
							<g>
								<g>
									<path class="st1" d="M376.41,101.91L376.41,101.91l0.6-0.2C376.81,101.51,376.61,102.11,376.41,101.91z"/>
									<path class="st1" d="M376.41,101.91c-0.2,0-0.4,0-0.4,0.2C376,101.91,376.41,102.11,376.41,101.91z"/>
									<path class="st1" d="M352.09,103.13L352.09,103.13c0.8,0,2.01,0.2,3.01,0l0,0c2.61,0,4.82-0.2,7.23-0.2l0,0
										c0.2,0,0.2-0.2,0.4-0.2l0,0c0.6,0.2,1.61-0.2,1.81,0c0.2,0,0.2,0,0.2-0.2c2.01,0,4.02,0,6.03-0.2c0,0,0.2,0,0,0.2
										c1.61-0.4,3.42-0.2,5.22-0.2c0,0-0.2,0,0-0.2c-0.6,0-1,0.2-1.61,0l0,0c-0.4,0,0,0.2-0.4,0c-0.2,0,0,0,0-0.2
										c-0.8,0-1.61,0-2.41,0.2c-0.2-0.2-0.8,0-1.21-0.2c-0.2,0-0.4,0-0.4,0.2c-2.81,0-5.63,0-8.44,0c-1.41,0.4-2.81,0-4.42,0l0,0
										c-0.6,0-1.21,0.2-1.81,0l-0.6,0.2c-3.62-0.2-7.44,0-11.05-0.2c-4.22,0-7.84-0.4-12.06,0.2l0,0c-1.21,0-2.21,0-3.42,0l0,0
										c-2.81,0.2-5.83,0-8.44,0.2c-3.22,0-6.83,0-10.45,0l0,0c-2.81,0.2-5.43-0.2-8.24-0.2c-2.81-0.2-5.83,0.4-8.64,0.2
										c-1.81-0.4-4.02,0.4-5.83,0c-3.42-0.4-6.63-0.2-10.05,0.2c-3.22-0.2-6.23,0.2-9.24,0c-1.41,0.2-3.01-0.2-4.62-0.2l0,0
										c-0.6-0.2-1.21,0.4-1.61,0l0,0c-0.4-0.2-0.8,0.4-0.8,0.2l0,0c-0.4,0,0-0.2-0.4-0.2c-0.2,0,0,0.2-0.2,0.2c0-0.4-0.8,0-1-0.4
										c0.2,0-0.4-0.2,0.2-0.2c-0.2,0-0.8,0-0.6,0.2c0,0.2-0.2,0.4,0,0.4v-0.2c0.2,0.2,0,0,0.2,0.2c0.4,0,0.6,0.2,1,0.2l0,0
										c0.2-0.2,0.6,0,0.8,0l0,0c0.2,0.2,0.6-0.4,0.4,0c1,0,2.21,0,3.22,0c0.2-0.2,0.8,0,0.6-0.2c0.2,0.2,1.21,0.2,1.41,0.2l0,0
										c0.6,0.2,0.8-0.2,1.21,0c0-0.2,1,0,1.41-0.2v0.2c1,0,2.21,0,3.01,0.2c0.8-0.2,1.81,0.2,2.41-0.2c0.6,0,1.41,0.2,2.01,0l0,0
										c0.8,0,1.81,0,2.41-0.2c0.2,0.2,0.6,0.2,1,0.4c0.6-0.2,1.61,0,2.41-0.2c0.2,0.2,0.6,0,0.8,0.2c2.41-0.4,5.22-0.2,7.64,0
										l0,0c0.4-0.2,0.6-0.4,1-0.4l0,0c0.4,0,0.8,0.2,1.41,0.2l0,0c0.4,0,0.8,0.2,1.41,0l0,0h0.4c0,0,0,0.2-0.2,0.2
										c3.82,0,8.04-0.2,11.86-0.2h-0.2l0.8-0.2l0,0c1,0.2,2.01,0,3.01,0c0,0-0.2,0,0,0.2c0.8-0.2,1.21,0.2,1.41-0.2
										c0,0,0,0,0,0.2c2.01-0.2,4.02-0.2,6.03,0c1.61-0.4,3.62,0,5.22-0.2l0,0c2.21-0.2,4.62,0,7.03,0c1,0,1.61,0,2.61,0l0,0
										c1.61-0.4,3.42,0.2,5.22,0l-0.2,0.2c0.2-0.2,1,0,1-0.2h0.2c1.21-0.4,2.01,0.2,3.62,0l0,0c0.4,0,0.8,0,1,0c0,0,0,0-0.2,0
										c1.21,0.2,2.41,0,3.82,0l-0.2,0.2c0.6-0.2,1.61,0,2.41,0l0,0h0.4v0.2C350.08,103.13,351.09,103.13,352.09,103.13z"/>
								</g>
							</g>
						</g>
					</g>
				</g>
				<circle class="st18" cx="190.12" cy="51.67" r="0.6"/>
				<circle class="st18" cx="196.75" cy="52.88" r="0.6"/>
				<path class="st18" d="M196.75,57.9c0,0.2-1.41,1-2.81,1c-1.41-0.2-2.41-1.41-2.41-1.41s1.21-0.2,2.61,0
					C195.55,57.5,196.75,57.7,196.75,57.9z"/>
				<g>
					<rect x="226.49" y="129.84" class="st19" width="168" height="8.24"/>
				</g>
				<path class="st18" d="M194.14,61.12c2.01,0.2,4.42,0,6.03-0.6c1.61-0.6,1.21,2.61,0.6,1.41
					C200.17,61.12,196.35,62.52,194.14,61.12z"/>
				<g>
					<g>
						<g>
							<g>
								<g>
									<path class="st1" d="M276.33,109.34C276.33,109.34,276.33,109.55,276.33,109.34C276.53,109.34,276.53,109.34,276.33,109.34
										L276.33,109.34z"/>
									<path class="st1" d="M275.93,107.94L275.93,107.94C275.73,107.94,275.93,107.94,275.93,107.94S275.73,107.94,275.93,107.94
										L275.93,107.94L275.93,107.94L275.93,107.94L275.93,107.94L275.93,107.94L275.93,107.94L275.93,107.94L275.93,107.94
										L275.93,107.94L275.93,107.94L275.93,107.94L275.93,107.94C275.73,107.94,275.93,107.94,275.93,107.94L275.93,107.94
										c-0.2,0.2,0,0.2-0.2,0.2C275.73,108.14,275.93,108.14,275.93,107.94c0,0.2,0,0.2,0,0.2l0,0l0,0l0,0c0,0,0,0-0.2,0l0,0l0,0
										l0,0l0,0l0,0l0,0c0,0-0.2,0,0,0l0,0c0,0,0,0,0.2,0l0,0h0.2l0,0l0,0l0,0l0,0c0,0,0,0-0.2,0l0,0c0,0,0,0-0.2,0l0,0l0,0l0,0
										l0,0l0,0l0,0h0.2c0,0,0,0-0.2,0l0,0l0,0l0,0l0,0c0.2,0,0,0,0.2,0l0,0c0,0,0.2,0,0,0l0,0l0,0l0,0l0,0h-0.2h0.4
										c0,0-0.2,0-0.4,0l0,0h0.2c0,0,0,0-0.2,0h0.2h-0.2h0.2h-0.2l0,0l0,0h0.2h-0.2c0,0,0.2,0,0.4,0l0,0l0,0c0,0-0.2,0-0.4,0l0,0
										l0,0l0,0c0,0,0,0,0.2,0l0,0h0.2h-0.2l0,0l0,0l0,0l0,0h0.4c0,0,0,0-0.2,0h-0.2l0,0l0,0l0,0l0,0h0.2l0,0l0,0l0,0l0,0l0,0l0,0
										l0,0h0.2l0,0c0,0,0.2,0,0,0h-0.2l0,0l0,0l0,0l0,0l0,0l0,0l0,0l0,0l0,0l0,0l0,0l0,0c0,0,0.2,0,0,0l0,0l0,0c0,0,0,0,0.2,0
										l0,0l0,0l0,0l0,0l0,0l0,0l0,0l0,0l0,0c0,0,0,0,0.2,0l0,0l0,0l0,0l0,0l0,0l0,0l0,0l0,0l0,0c0.2,0,0,0,0,0l0,0l0,0l0,0l0,0
										l0,0c0.2,0,0,0,0,0l0,0l0,0l0,0l0,0l0,0l0,0l0,0l0,0l0,0l0,0l0,0c0,0,0,0-0.2,0l0,0l0,0l0,0l0,0c0,0,0,0,0.2,0
										c0,0,0,0-0.2,0l0,0l0,0c0,0,0,0,0-0.2c-0.2,0,0,0,0,0l0,0l0,0l0,0l0,0l0,0c0,0,0,0-0.2,0l0,0l0,0l0,0l0,0l0,0l0,0l0,0l0,0
										l0,0l0,0c-0.2,0,0,0,0,0l0,0h0.2l0,0l0,0l0,0c0,0-0.2,0,0,0l0,0c0,0,0.2,0,0,0l0,0l0,0c0.2,0,0,0,0,0l0,0l0,0l0,0l0,0l0,0
										l0,0l0,0l0,0c0,0,0.2,0,0,0l0,0c0,0,0,0-0.2,0l0,0l0,0c0.2,0,0,0,0.2,0v-0.2l0,0l0,0l0,0l0,0l0,0l0,0l0,0l0,0l0,0l0,0l0,0
										l0,0l0,0c0.2,0,0,0,0,0l0,0l0,0c0.2,0,0,0,0.2,0c0,0,0,0-0.2,0l0,0l0,0l0,0l0,0c0,0-0.2,0,0,0l0,0v-0.2l0,0l0,0l0,0l0,0
										l0,0h-0.2c0,0-0.2,0,0,0l0,0l0,0l0,0l0,0l0,0l0,0l0,0c-0.2,0,0,0-0.2,0l0,0l0,0l0,0l0,0l0,0l0,0l0,0c0,0,0,0,0,0.2l0,0l0,0
										l0,0l0,0l0,0c0,0,0,0,0.2,0l0,0l0,0c0,0,0,0-0.2,0l0,0c0.2,0,0,0,0,0l0,0h-0.2l0,0l0,0l0,0l0,0c0,0,0.2,0,0,0l0,0l0,0l0,0
										l0,0c0.2,0,0,0,0,0l0,0l0,0l0,0l0,0l0,0h-0.2l0,0l0,0l0,0l0,0l0,0c0,0,0.2,0,0,0l0,0l0,0l0,0l0,0l0,0l0,0l0,0l0,0l0,0l0,0
										l0,0l0,0C275.93,107.74,275.93,107.74,275.93,107.94c0-0.2,0-0.2,0-0.2V107.94C275.93,107.74,275.93,107.74,275.93,107.94
										C275.73,107.74,275.93,107.74,275.93,107.94C275.93,107.74,275.93,107.74,275.93,107.94
										C275.93,107.74,275.93,107.74,275.93,107.94L275.93,107.94C275.93,107.74,275.93,107.74,275.93,107.94
										C275.93,107.94,275.93,107.74,275.93,107.94L275.93,107.94L275.93,107.94z M275.93,108.14L275.93,108.14L275.93,108.14z
										 M276.13,108.34L276.13,108.34L276.13,108.34z M276.53,109.14L276.53,109.14L276.53,109.14z M276.33,109.14
										C276.33,109.14,276.53,109.14,276.33,109.14L276.33,109.14L276.33,109.14z M276.33,107.34L276.33,107.34L276.33,107.34z"/>
									<path class="st1" d="M276.33,109.14L276.33,109.14C276.13,109.34,276.33,109.34,276.33,109.14
										C276.33,109.34,276.33,109.14,276.33,109.14z"/>
								</g>
							</g>
						</g>
					</g>
				</g>
				<g>
					<g>
						<g>
							<g>
								<g>
									<path class="st1" d="M298.44,109.55C298.23,109.75,298.44,109.75,298.44,109.55L298.44,109.55L298.44,109.55
										C298.44,109.75,298.44,109.75,298.44,109.55z"/>
									<path class="st1" d="M298.03,107.94L298.03,107.94C297.83,107.94,297.83,107.94,298.03,107.94
										C298.03,107.94,297.83,107.94,298.03,107.94L298.03,107.94C297.83,107.94,297.83,107.94,298.03,107.94
										C297.83,107.94,298.03,107.94,298.03,107.94L298.03,107.94L298.03,107.94L298.03,107.94L298.03,107.94L298.03,107.94
										L298.03,107.94L298.03,107.94L298.03,107.94L298.03,107.94C297.83,107.94,298.03,107.94,298.03,107.94L298.03,107.94
										c-0.2,0.2,0,0.2-0.2,0.2C297.83,108.14,298.03,108.14,298.03,107.94c0,0.2,0,0.2,0,0.2l0,0l0,0l0,0c0,0,0,0-0.2,0l0,0l0,0
										l0,0l0,0l0,0l0,0c0,0-0.2,0,0,0l0,0c0,0,0,0,0.2,0l0,0h0.2l0,0l0,0l0,0l0,0c0,0,0,0-0.2,0l0,0c0,0,0,0-0.2,0l0,0l0,0l0,0
										l0,0l0,0l0,0h0.2c0,0,0,0-0.2,0l0,0l0,0l0,0l0,0c0.2,0,0,0,0.2,0l0,0c0,0,0.2,0,0,0l0,0l0,0l0,0l0,0h-0.2h0.4
										c0,0-0.2,0-0.4,0l0,0h0.2c0,0,0,0-0.2,0h0.2h-0.2h0.2h-0.2l0,0l0,0h0.2h-0.2c0,0,0.2,0,0.4,0l0,0l0,0c0,0-0.2,0-0.4,0l0,0
										l0,0l0,0c0,0,0,0,0.2,0l0,0h0.2h-0.2l0,0l0,0l0,0l0,0h0.4c0,0,0,0-0.2,0h-0.2l0,0l0,0l0,0l0,0h0.2l0,0l0,0l0,0l0,0l0,0l0,0
										l0,0h0.2l0,0c0,0,0.2,0,0,0h-0.2l0,0l0,0l0,0l0,0l0,0l0,0l0,0l0,0l0,0l0,0l0,0l0,0c0,0,0.2,0,0,0l0,0l0,0c0,0,0,0,0.2,0
										l0,0l0,0l0,0l0,0l0,0l0,0l0,0l0,0l0,0c0,0,0,0,0.2,0l0,0l0,0l0,0l0,0l0,0l0,0l0,0l0,0l0,0c0.2,0,0,0,0,0l0,0l0,0l0,0l0,0
										l0,0c0.2,0,0,0,0,0l0,0l0,0l0,0l0,0l0,0l0,0l0,0l0,0l0,0l0,0l0,0c0,0,0,0-0.2,0l0,0l0,0l0,0l0,0c0,0,0,0,0.2,0
										c0,0,0,0-0.2,0l0,0l0,0c0,0,0,0,0-0.2c-0.2,0,0,0,0,0l0,0l0,0l0,0l0,0l0,0c0,0,0,0-0.2,0l0,0l0,0l0,0l0,0l0,0l0,0l0,0l0,0
										l0,0l0,0c-0.2,0,0,0,0,0l0,0h0.2l0,0l0,0l0,0c0,0-0.2,0,0,0l0,0c0,0,0.2,0,0,0l0,0l0,0c0.2,0,0,0,0,0l0,0l0,0l0,0l0,0l0,0
										l0,0l0,0l0,0c0,0,0.2,0,0,0l0,0c0,0,0,0-0.2,0l0,0l0,0c0.2,0,0,0,0.2,0v-0.2l0,0l0,0l0,0l0,0l0,0l0,0l0,0l0,0l0,0l0,0l0,0
										l0,0l0,0c0.2,0,0,0,0,0l0,0l0,0c0.2,0,0,0,0.2,0c0,0,0,0-0.2,0l0,0l0,0l0,0l0,0c0,0-0.2,0,0,0l0,0v-0.2l0,0l0,0l0,0l0,0
										l0,0h-0.2c0,0-0.2,0,0,0l0,0l0,0l0,0l0,0l0,0l0,0l0,0c-0.2,0,0,0-0.2,0l0,0l0,0l0,0l0,0l0,0l0,0l0,0c0,0,0,0,0,0.2l0,0l0,0
										l0,0l0,0l0,0c0,0,0,0,0.2,0l0,0l0,0c0,0,0,0-0.2,0l0,0c0.2,0,0,0,0,0l0,0h-0.2l0,0l0,0l0,0l0,0c0,0,0.2,0,0,0l0,0l0,0l0,0
										l0,0c0.2,0,0,0,0,0l0,0l0,0l0,0l0,0l0,0h-0.2l0,0l0,0l0,0l0,0l0,0c0,0,0.2,0,0,0l0,0l0,0l0,0l0,0l0,0l0,0l0,0l0,0l0,0l0,0
										l0,0l0,0C298.03,107.74,298.03,107.74,298.03,107.94c0-0.2,0-0.2,0-0.2V107.94C297.83,107.74,297.83,107.74,298.03,107.94
										C297.83,107.74,298.03,107.74,298.03,107.94C297.83,107.74,298.03,107.74,298.03,107.94
										C297.83,107.74,297.83,107.74,298.03,107.94L298.03,107.94C297.83,107.74,298.03,107.74,298.03,107.94
										C298.03,107.94,297.83,107.74,298.03,107.94L298.03,107.94L298.03,107.94z M298.03,108.14L298.03,108.14L298.03,108.14z
										 M298.03,108.34L298.03,108.34L298.03,108.34z M298.44,109.14L298.44,109.14L298.44,109.14z M298.44,109.14L298.44,109.14
										L298.44,109.14L298.44,109.14z M298.44,107.34L298.44,107.34L298.44,107.34z"/>
								</g>
							</g>
						</g>
					</g>
				</g>
				<g>
					<g>
						<g>
							<g>
								<g>
									<path class="st1" d="M317.73,109.55C317.73,109.75,317.93,109.75,317.73,109.55L317.73,109.55L317.73,109.55
										C317.93,109.75,317.73,109.75,317.73,109.55z"/>
									<path class="st1" d="M317.93,109.34C318.13,109.55,318.13,109.34,317.93,109.34C318.13,109.34,318.13,109.34,317.93,109.34
										C318.13,109.34,318.13,109.34,317.93,109.34z"/>
									<path class="st1" d="M317.33,107.94L317.33,107.94L317.33,107.94L317.33,107.94L317.33,107.94L317.33,107.94
										C317.33,107.94,317.53,107.94,317.33,107.94C317.53,107.94,317.53,107.94,317.33,107.94L317.33,107.94
										C317.53,107.94,317.33,107.94,317.33,107.94L317.33,107.94L317.33,107.94C317.53,107.94,317.53,107.94,317.33,107.94
										C317.53,107.94,317.53,107.94,317.33,107.94L317.33,107.94C317.53,107.94,317.53,107.94,317.33,107.94
										C317.33,107.94,317.53,107.94,317.33,107.94L317.33,107.94c-0.2,0.2,0,0.2-0.2,0.2
										C317.33,108.14,317.33,108.14,317.33,107.94c0,0.2,0,0.2,0,0.2l0,0l0,0l0,0c0,0,0,0-0.2,0l0,0l0,0l0,0l0,0l0,0l0,0
										c0,0-0.2,0,0,0l0,0c0,0,0,0,0.2,0l0,0h0.2l0,0l0,0l0,0l0,0c0,0,0,0-0.2,0l0,0c0,0,0,0-0.2,0l0,0l0,0l0,0l0,0l0,0l0,0h0.2
										c0,0,0,0-0.2,0l0,0l0,0l0,0l0,0c0.2,0,0,0,0.2,0l0,0c0,0,0.2,0,0,0l0,0l0,0l0,0l0,0h-0.2h0.4c0,0-0.2,0-0.4,0l0,0h0.2
										c0,0,0,0-0.2,0h0.2h-0.2h0.2h-0.2l0,0l0,0h0.2h-0.2c0,0,0.2,0,0.4,0l0,0l0,0c0,0-0.2,0-0.4,0l0,0l0,0l0,0c0,0,0,0,0.2,0
										l0,0h0.2h-0.2l0,0l0,0l0,0l0,0h0.4c0,0,0,0-0.2,0h-0.2l0,0l0,0l0,0l0,0h0.2l0,0l0,0l0,0l0,0l0,0l0,0l0,0h0.2l0,0
										c0,0,0.2,0,0,0h-0.2l0,0l0,0l0,0l0,0l0,0l0,0l0,0l0,0l0,0l0,0l0,0l0,0c0,0,0.2,0,0,0l0,0l0,0c0,0,0,0,0.2,0l0,0l0,0l0,0
										l0,0l0,0l0,0l0,0l0,0l0,0c0,0,0,0,0.2,0l0,0l0,0l0,0l0,0l0,0l0,0l0,0l0,0l0,0c0.2,0,0,0,0,0l0,0l0,0l0,0l0,0l0,0
										c0.2,0,0,0,0,0l0,0l0,0l0,0l0,0l0,0l0,0l0,0l0,0l0,0l0,0l0,0c0,0,0,0-0.2,0l0,0l0,0l0,0l0,0c0,0,0,0,0.2,0c0,0,0,0-0.2,0
										l0,0l0,0c0,0,0,0,0-0.2c-0.2,0,0,0,0,0l0,0l0,0l0,0l0,0l0,0c0,0,0,0-0.2,0l0,0l0,0l0,0l0,0l0,0l0,0l0,0l0,0l0,0l0,0
										c-0.2,0,0,0,0,0l0,0h0.2l0,0l0,0l0,0c0,0-0.2,0,0,0l0,0c0,0,0.2,0,0,0l0,0l0,0c0.2,0,0,0,0,0l0,0l0,0l0,0l0,0l0,0l0,0l0,0
										l0,0c0,0,0.2,0,0,0l0,0c0,0,0,0-0.2,0l0,0l0,0c0.2,0,0,0,0.2,0v-0.2l0,0l0,0l0,0l0,0l0,0l0,0l0,0l0,0l0,0l0,0l0,0l0,0l0,0
										c0.2,0,0,0,0,0l0,0l0,0c0.2,0,0,0,0.2,0c0,0,0,0-0.2,0l0,0l0,0l0,0l0,0c0,0-0.2,0,0,0l0,0v-0.2l0,0l0,0l0,0l0,0l0,0h-0.2
										c0,0-0.2,0,0,0l0,0l0,0l0,0l0,0l0,0l0,0l0,0c-0.2,0,0,0-0.2,0l0,0l0,0l0,0l0,0l0,0l0,0l0,0c0,0,0,0,0,0.2l0,0l0,0l0,0l0,0
										l0,0c0,0,0,0,0.2,0l0,0l0,0c0,0,0,0-0.2,0l0,0c0.2,0,0,0,0,0l0,0h-0.2l0,0l0,0l0,0l0,0c0,0,0.2,0,0,0l0,0l0,0l0,0l0,0
										c0.2,0,0,0,0,0l0,0l0,0l0,0l0,0l0,0h-0.2l0,0l0,0l0,0l0,0l0,0c0,0,0.2,0,0,0l0,0l0,0l0,0l0,0l0,0l0,0l0,0l0,0l0,0l0,0l0,0
										l0,0C317.33,107.74,317.53,107.74,317.33,107.94c0-0.2,0-0.2,0-0.2V107.94C317.33,107.74,317.33,107.74,317.33,107.94
										C317.33,107.74,317.33,107.74,317.33,107.94C317.33,107.74,317.33,107.74,317.33,107.94
										C317.33,107.74,317.33,107.74,317.33,107.94L317.33,107.94C317.33,107.74,317.33,107.74,317.33,107.94
										C317.53,107.94,317.33,107.74,317.33,107.94C317.33,107.94,317.53,107.94,317.33,107.94L317.33,107.94z M317.53,108.14
										C317.33,108.14,317.33,108.14,317.53,108.14L317.53,108.14z M317.53,108.34L317.53,108.34L317.53,108.34z M317.93,109.14
										L317.93,109.14L317.93,109.14z M317.93,109.14L317.93,109.14L317.93,109.14L317.93,109.14z M317.93,107.34L317.93,107.34
										L317.93,107.34z"/>
								</g>
							</g>
						</g>
					</g>
				</g>
				<g>
					<g>
						<g>
							<g>
								<g>
									<path class="st1" d="M337.62,109.34C337.62,109.55,337.82,109.34,337.62,109.34C337.82,109.34,337.62,109.34,337.62,109.34
										L337.62,109.34z"/>
									<path class="st1" d="M337.02,107.94L337.02,107.94L337.02,107.94L337.02,107.94L337.02,107.94L337.02,107.94
										C337.02,107.94,337.22,107.94,337.02,107.94C337.22,107.94,337.02,107.94,337.02,107.94L337.02,107.94L337.02,107.94
										L337.02,107.94L337.02,107.94C337.22,107.94,337.22,107.94,337.02,107.94C337.22,107.94,337.22,107.94,337.02,107.94
										L337.02,107.94C337.22,107.94,337.02,107.94,337.02,107.94S337.22,107.94,337.02,107.94L337.02,107.94
										c-0.2,0.2,0,0.2-0.2,0.2C337.02,108.14,337.02,108.14,337.02,107.94c0,0.2,0,0.2,0,0.2l0,0l0,0l0,0c0,0,0,0-0.2,0l0,0l0,0
										l0,0l0,0l0,0l0,0c0,0-0.2,0,0,0l0,0c0,0,0,0,0.2,0l0,0h0.2l0,0l0,0l0,0l0,0c0,0,0,0-0.2,0l0,0c0,0,0,0-0.2,0l0,0l0,0l0,0
										l0,0l0,0l0,0h0.2c0,0,0,0-0.2,0l0,0l0,0l0,0l0,0c0.2,0,0,0,0.2,0l0,0c0,0,0.2,0,0,0l0,0l0,0l0,0l0,0h-0.2h0.4
										c0,0-0.2,0-0.4,0l0,0h0.2c0,0,0,0-0.2,0h0.2h-0.2h0.2h-0.2l0,0l0,0h0.2h-0.2c0,0,0.2,0,0.4,0l0,0l0,0c0,0-0.2,0-0.4,0l0,0
										l0,0l0,0c0,0,0,0,0.2,0l0,0h0.2h-0.2l0,0l0,0l0,0l0,0h0.4c0,0,0,0-0.2,0h-0.2l0,0l0,0l0,0l0,0h0.2l0,0l0,0l0,0l0,0l0,0l0,0
										l0,0h0.2l0,0c0,0,0.2,0,0,0h-0.2l0,0l0,0l0,0l0,0l0,0l0,0l0,0l0,0l0,0l0,0l0,0l0,0c0,0,0.2,0,0,0l0,0l0,0c0,0,0,0,0.2,0
										l0,0l0,0l0,0l0,0l0,0l0,0l0,0l0,0l0,0c0,0,0,0,0.2,0l0,0l0,0l0,0l0,0l0,0l0,0l0,0l0,0l0,0c0.2,0,0,0,0,0l0,0l0,0l0,0l0,0
										l0,0c0.2,0,0,0,0,0l0,0l0,0l0,0l0,0l0,0l0,0l0,0l0,0l0,0l0,0l0,0c0,0,0,0-0.2,0l0,0l0,0l0,0l0,0c0,0,0,0,0.2,0
										c0,0,0,0-0.2,0l0,0l0,0c0,0,0,0,0-0.2c-0.2,0,0,0,0,0l0,0l0,0l0,0l0,0l0,0c0,0,0,0-0.2,0l0,0l0,0l0,0l0,0l0,0l0,0l0,0l0,0
										l0,0l0,0c-0.2,0,0,0,0,0l0,0h0.2l0,0l0,0l0,0c0,0-0.2,0,0,0l0,0c0,0,0.2,0,0,0l0,0l0,0c0.2,0,0,0,0,0l0,0l0,0l0,0l0,0l0,0
										l0,0l0,0l0,0c0,0,0.2,0,0,0l0,0c0,0,0,0-0.2,0l0,0l0,0c0.2,0,0,0,0.2,0v-0.2l0,0l0,0l0,0l0,0l0,0l0,0l0,0l0,0l0,0l0,0l0,0
										l0,0l0,0c0.2,0,0,0,0,0l0,0l0,0c0.2,0,0,0,0.2,0c0,0,0,0-0.2,0l0,0l0,0l0,0l0,0c0,0-0.2,0,0,0l0,0v-0.2l0,0l0,0l0,0l0,0
										l0,0h-0.2c0,0-0.2,0,0,0l0,0l0,0l0,0l0,0l0,0l0,0l0,0c-0.2,0,0,0-0.2,0l0,0l0,0l0,0l0,0l0,0l0,0l0,0c0,0,0,0,0,0.2l0,0l0,0
										l0,0l0,0l0,0c0,0,0,0,0.2,0l0,0l0,0c0,0,0,0-0.2,0l0,0c0.2,0,0,0,0,0l0,0h-0.2l0,0l0,0l0,0l0,0c0,0,0.2,0,0,0l0,0l0,0l0,0
										l0,0c0.2,0,0,0,0,0l0,0l0,0l0,0l0,0l0,0h-0.2l0,0l0,0l0,0l0,0l0,0c0,0,0.2,0,0,0l0,0l0,0l0,0l0,0l0,0l0,0l0,0l0,0l0,0l0,0
										l0,0l0,0C337.02,107.74,337.02,107.74,337.02,107.94c0-0.2,0-0.2,0-0.2V107.94C337.02,107.74,337.02,107.74,337.02,107.94
										C337.02,107.74,337.02,107.74,337.02,107.94C337.02,107.74,337.02,107.74,337.02,107.94
										C337.02,107.74,337.02,107.74,337.02,107.94L337.02,107.94C337.02,107.74,337.02,107.74,337.02,107.94
										C337.22,107.94,337.02,107.74,337.02,107.94C337.02,107.94,337.22,107.94,337.02,107.94L337.02,107.94z M337.02,108.14
										L337.02,108.14C337.22,108.14,337.22,108.14,337.02,108.14z M337.22,108.34L337.22,108.34L337.22,108.34z M337.62,109.14
										L337.62,109.14L337.62,109.14z M337.62,109.14L337.62,109.14L337.62,109.14L337.62,109.14z M337.62,107.34L337.62,107.34
										C337.42,107.34,337.62,107.34,337.62,107.34z"/>
								</g>
							</g>
						</g>
					</g>
				</g>
			</g>
		</g>
	</g>
</g>
<g id="Layer_4" class="st67">
</g>
</svg>
