<?xml version="1.0" encoding="utf-8"?>
<!-- Generator: Adobe Illustrator 24.0.2, SVG Export Plug-In . SVG Version: 6.00 Build 0)  -->
<svg version="1.1" xmlns="http://www.w3.org/2000/svg" xmlns:xlink="http://www.w3.org/1999/xlink" x="0px" y="0px"
	 viewBox="0 0 532 151" style="enable-background:new 0 0 532 151;" xml:space="preserve">
<style type="text/css">
	.st0{clip-path:url(#SVGID_4_);}
	.st1{fill:#E8E7DD;}
	.st2{opacity:0.58;fill:#DED9CD;enable-background:new    ;}
	.st3{opacity:0.92;fill:#FFFFFF;enable-background:new    ;}
	.st4{fill:#D4C9A8;}
	.st5{fill:#5895BF;}
	.st6{fill:#5595C0;}
	.st7{opacity:0.98;fill:#F3D170;enable-background:new    ;}
	.st8{fill:#FFFFFF;}
	.st9{fill:none;stroke:#162D4F;stroke-width:0.7628;stroke-linecap:round;stroke-miterlimit:10;}
	.st10{fill:#152D4F;}
	.st11{fill:#334765;}
	.st12{fill:#F3D170;}
	.st13{opacity:0.27;fill:#FFFFFF;enable-background:new    ;}
	.st14{fill:#F3D170;enable-background:new    ;}
	.st15{fill:#F3F5F7;}
	.st16{fill:#5695BF;}
	.st17{fill:#F3DA8C;}
	.st18{fill:#162D4F;}
	.st19{fill:#DED9CD;}
	.st20{clip-path:url(#SVGID_8_);}
	.st21{opacity:0.93;fill:#4096C6;enable-background:new    ;}
	.st22{fill:#E5E3D8;}
	.st23{fill:#1C305D;}
	.st24{fill:#E8E6DA;}
	.st25{fill:#61BDEA;}
	.st26{fill:#E7C450;}
	.st27{fill:#EFD065;}
	.st28{fill:#174375;}
	.st29{fill:#4096C6;}
	.st30{opacity:0.4;fill:#5895BF;enable-background:new    ;}
	.st31{fill:#E2E3E4;}
	.st32{opacity:0.73;fill:#FFFFFF;enable-background:new    ;}
	.st33{fill:#F9CE57;}
	.st34{opacity:0.66;fill:#FFFFFF;enable-background:new    ;}
	.st35{opacity:0.41;fill:#EFD065;enable-background:new    ;}
	.st36{opacity:0.41;fill:#FFFFFF;enable-background:new    ;}
	.st37{fill:#F5F5F4;}
	.st38{opacity:0.94;fill:#EFD065;enable-background:new    ;}
	.st39{opacity:0.84;fill:#61BDEA;enable-background:new    ;}
	.st40{clip-path:url(#SVGID_12_);}
	.st41{opacity:0.82;fill:none;stroke:#61BDEA;stroke-width:0.2194;stroke-miterlimit:10;enable-background:new    ;}
	.st42{fill:#345B86;}
	.st43{opacity:0.63;}
	.st44{fill:#FAD46C;}
	.st45{fill:#FFFFFF;enable-background:new    ;}
	.st46{fill:none;stroke:#4096C6;stroke-width:0.6583;stroke-miterlimit:10;}
	.st47{fill:#FBDB89;}
	.st48{opacity:0.92;fill:#4096C6;enable-background:new    ;}
	.st49{opacity:0.94;fill:#E7C450;enable-background:new    ;}
	.st50{fill:#57B7DD;}
	.st51{opacity:0.81;fill:#4096C6;enable-background:new    ;}
	.st52{opacity:0.77;fill:#4096C6;enable-background:new    ;}
	.st53{fill:#EFD065;enable-background:new    ;}
	.st54{clip-path:url(#SVGID_16_);}
	.st55{fill:#D2C7A6;}
	.st56{opacity:0.91;}
	.st57{fill:#F2F4F6;}
	.st58{fill:#E6E4D8;}
	.st59{fill:#FFFFFF;stroke:#5894BE;stroke-width:0.457;stroke-miterlimit:10;}
	.st60{opacity:0.37;fill:#4098C7;enable-background:new    ;}
	.st61{fill:none;stroke:#174375;stroke-width:0.8675;stroke-miterlimit:10;}
	.st62{fill:none;stroke:#4096C6;stroke-width:0.4338;stroke-miterlimit:10;}
	.st63{opacity:0.44;fill:#FFFFFF;stroke:#4096C6;stroke-width:0.4338;stroke-miterlimit:10;enable-background:new    ;}
	.st64{fill:url(#SVGID_17_);}
	.st65{fill:#4098C7;}
	.st66{fill:#05B204;}
	.st67{display:none;}
</style>
<g id="Original">
</g>
<g id="Idea_2">
	<g>
		<g>
			<defs>
				<rect id="SVGID_13_" x="0" y="1" width="532" height="152"/>
			</defs>
			<use xlink:href="#SVGID_13_"  style="overflow:visible;fill:#E8E6DA;"/>
			<clipPath id="SVGID_2_">
				<use xlink:href="#SVGID_13_"  style="overflow:visible;"/>
			</clipPath>
		</g>
		<g>
			<defs>
				<rect id="SVGID_15_" x="104.26" y="1" width="311.55" height="152"/>
			</defs>
			<clipPath id="SVGID_4_">
				<use xlink:href="#SVGID_15_"  style="overflow:visible;"/>
			</clipPath>
			<g class="st0">
				<path class="st10" d="M269.13-23.99c13.1-0.61,21.62-0.15,28.93,25.43c7.92,27.71,28.02,18.73,33.65,32.28
					c4.11,10.05-7.16,15.99,3.65,37c6.55,12.79,0.15,19.34-19.34,24.06c-19.49,4.72-54.51,8.98-57.86-17.82s-1.22-11.73-2.59-23.75
					c-1.83-15.68-22.54-10.81-22.84-30.76C232.58,7.53,244.76,8.9,247.66-7.09C250.4-21.4,264.1-23.69,269.13-23.99z"/>
				<path class="st55" d="M272.17,44.38c-1.98,11.12-4.87,7.61-7.46,7.77c-4.11,0.15-9.59,71.87,9.75,68.07
					c19.34-3.81,31.22-24.36,25.28-41.57c-5.94-17.21-13.25-25.58-15.38-30.45C282.38,43.47,272.17,44.38,272.17,44.38z"/>
				<g class="st56">
					<path class="st57" d="M261.06,51.69c0,0-16.29,26.8-17.66,38.37c-2.28,18.58,23.6,16.6,13.86,38.68
						c-2.74,5.79-1.98,41.27-1.98,41.27l41.11-3.05c0,0-2.89-8.07,2.89-18.73s9.59-22.08,9.29-26.04
						c-1.68-19.64,9.9-15.68,9.59-29.54c-0.3-13.55-22.69-26.5-24.67-42.94h-7.46c0,0-6.4,36.09-7.46,36.55
						c-0.61-0.61-10.66-34.72-10.66-34.72L261.06,51.69z"/>
				</g>
				<path class="st55" d="M254.36,8.3c-2.13,26.95-1.07,42.63,19.34,40.35c20.4-2.28,16.29-12.18,15.99-17.21
					c-0.3-5.03-8.22,1.53-10.51-14.46C277.05,2.36,254.36,8.3,254.36,8.3z"/>
				<circle class="st10" cx="258.47" cy="29.31" r="1.68"/>
				<circle class="st10" cx="277.66" cy="27.02" r="1.68"/>
				<path class="st10" d="M277.5,40.42c0,0.3-3.2,3.05-6.85,3.05s-6.4-2.59-6.4-2.89c0-0.3,2.89-0.61,6.55-0.61
					C274.61,39.97,277.5,40.12,277.5,40.42z"/>
				<path class="st10" d="M274,48.64c3.96-0.46,8.22-1.37,10.96-2.89c2.74-1.52,2.74,4.42,1.52,2.59
					C285.42,46.67,278.57,50.62,274,48.64z"/>
				<path class="st25" d="M264.71,50.78l-0.46,38.98l15.38,61.67l14.92-64.26l-4.11-37.76c0,0,19.19,0.46,25.28,3.5
					c6.09,3.05,39.59,44.77,39.59,55.43c0,5.94-61.37,10.96-61.37,10.96l-3.05-9.9c0,0,37.61-8.38,37.15-8.83
					c-3.2-3.2-14.16-24.67-14.16-24.67s5.33,13.25,5.48,20.25c0.15,7-10.35,27.87-10.35,33.96c0,6.09,15.08,36.39,15.08,36.39
					l-38.37,1.98l-6.7-12.79l-9.14,14.01l-34.41,1.83c0,0,24.06-44.01,22.84-48.27s-15.08-22.84-15.08-30.15
					c0-7.31,3.2-17.82,3.2-17.82s-35.33,25.58-29.85,30.45c5.48,4.87,4.42,2.13,4.42,2.13l-11.42,10.05c0,0-0.76,6.09-10.51,3.05
					s-21.17-10.05,7.31-30.15c26.04-18.27,36.7-36.85,41.57-38.07C252.99,51.84,264.71,50.78,264.71,50.78z"/>
				<polygon class="st29" points="284.36,132.55 305.22,86.87 300.65,82.3 306.28,75.44 298.36,48.95 289.68,48.34 				"/>
				<polygon class="st29" points="274.46,131.63 264.26,89.91 264.41,66.16 267.3,49.56 258.77,50.78 247.81,76.21 254.97,82.3 
					249.79,87.93 				"/>
				<polygon class="st58" points="278.72,86.26 289.99,65.85 302.32,68.74 289.68,48.34 283.44,47.27 284.05,50.62 				"/>
				<polygon class="st58" points="278.26,85.8 263.95,67.22 251.62,70.12 265.63,49.71 271.26,48.8 269.89,51.99 				"/>
				<polyline class="st59" points="266.54,85.5 271.87,144.73 196.8,152.34 192.23,94.48 				"/>
				<polyline class="st60" points="256.49,129.65 245.83,151.43 275.83,148.38 270.96,91.28 271.72,91.28 270.8,78.19 264.41,78.34 
					256.18,129.96 				"/>
				
					<rect x="206.94" y="90.33" transform="matrix(0.9954 -0.096 0.096 0.9954 -8.3989 21.0385)" class="st8" width="14.92" height="14.92"/>
				
					<rect x="237.73" y="87.45" transform="matrix(0.9954 -0.0958 0.0958 0.9954 -7.9632 23.9219)" class="st8" width="14.92" height="14.92"/>
				<polygon class="st28" points="196.8,152.34 271.87,144.73 266.54,85.5 192.23,94.48 				"/>
				<polyline class="st61" points="266.54,85.5 271.87,144.73 196.8,152.34 192.23,94.48 				"/>
				<polygon class="st26" points="191.16,94.94 268.21,85.65 266.84,73.16 189.49,78.34 				"/>
				<path class="st55" d="M287.4,120.52c-1.68,5.48-23.6,14.92-24.82,12.18c-0.76-1.68,10.05-6.7,8.83-6.55
					c-2.74,0.3-14.47,5.79-15.23,3.65c-0.91-2.59,15.08-7,14.16-7c-2.89,0.3-16.45,3.65-16.9,0.46c-0.3-1.98,15.38-3.5,16.6-4.26
					c1.07-0.76-17.21,1.98-17.36-0.61c-0.15-2.59,17.36-3.81,17.36-3.81c-0.15,0.15-0.15-0.76-0.46-4.11l14.31-0.46
					C287.4,109.71,288.77,116.41,287.4,120.52z"/>
				<g>
					<circle class="st62" cx="277.5" cy="27.63" r="7"/>
					<circle class="st62" cx="258.32" cy="29.61" r="7"/>
				</g>
				<line class="st62" x1="265.32" y1="28.7" x2="270.65" y2="27.63"/>
				<g>
					<circle class="st63" cx="277.5" cy="27.63" r="7"/>
					<circle class="st63" cx="258.32" cy="29.61" r="7"/>
				</g>
				<path class="st55" d="M190.1,101.03l2.89-0.76c0,0,14.16-5.94,15.08-3.35c0.91,2.74-14.62,8.38-14.62,8.38
					s18.12-4.11,18.43-1.37c0.3,3.05-13.55,5.18-17.51,7c3.81,0.3,17.21-2.59,17.36,0.15c0,1.83-17.82,5.03-17.82,5.03
					s14.01-0.3,13.86,1.83c-0.15,1.83-14.92,2.44-14.92,2.44c1.52,0-1.98,0-4.72-0.61c-3.96-0.91-8.07-3.96-7.16-9.44
					c0.76-5.18,3.35-6.7,4.42-7.61C186.44,101.79,190.1,101.03,190.1,101.03z"/>
				
					<linearGradient id="SVGID_6_" gradientUnits="userSpaceOnUse" x1="299.8827" y1="1648.0905" x2="333.5248" y2="1664.4718" gradientTransform="matrix(1 0 0 -1 0 1768.2128)">
					<stop  offset="0" style="stop-color:#499FC7"/>
					<stop  offset="0.1878" style="stop-color:#4FA7D0"/>
					<stop  offset="0.6658" style="stop-color:#5CB7E3"/>
					<stop  offset="1" style="stop-color:#61BDEA"/>
				</linearGradient>
				<path style="fill:url(#SVGID_6_);" d="M349.83,110.92c-20.1,4.26-52.99,9.14-52.99,9.14l-3.5-11.88c0,0,29.08-5.18,34.41-7.46"
					/>
				<polygon class="st58" points="293.95,107.27 284.51,109.86 286.94,123.11 296.84,123.11 				"/>
				<circle class="st65" cx="279.63" cy="97.22" r="1.22"/>
				<circle class="st65" cx="280.7" cy="135.14" r="1.22"/>
				<path class="st60" d="M268.82,109.71l0.61,4.72c0,0,1.52-4.11,1.83-4.11c-1.52,0-1.83,0.15-1.83,0.15L268.82,109.71z"/>
				<g>
					<g>
						<path class="st66" d="M215.73,137.63c0,0,0.01-0.01,0.01-0.02L215.73,137.63L215.73,137.63z"/>
					</g>
				</g>
			</g>
		</g>
		<path class="st26" d="M221.7,117.22c0.79,1.01,1.58,2.02,2.38,3.02c0.1,0.17,0.19,0.34,0.29,0.51c0,0,0,0.01,0,0.01
			c0.11,0.19,0.22,0.38,0.33,0.57c0.08,0,0.16,0.02,0.24,0.05c0.2,0.19,0.4,0.38,0.6,0.58c0,0-0.01-0.02-0.01-0.02
			c0.02,0.1,0.05,0.19,0.08,0.27c0.07,0.1,0.15,0.21,0.22,0.31c0.1,0.21,0.19,0.41,0.29,0.62l0.02-0.03c0.1,0.1,0.2,0.19,0.3,0.29
			c0.11,0.19,0.22,0.39,0.33,0.58c0.08,0.1,0.17,0.2,0.25,0.3c0.02,0.05,0.02,0.1,0.05,0.13c0.02,0.02,0.06,0.02,0.1,0.03
			c-0.05-0.05-0.11-0.1-0.16-0.15c-0.02-0.1-0.05-0.2-0.07-0.3c-0.17-0.19-0.34-0.38-0.51-0.58c-0.01-0.1-0.02-0.2-0.04-0.3
			c-0.08-0.11-0.16-0.21-0.25-0.32c-0.01-0.1-0.02-0.19-0.05-0.29c0.03-0.08,0.05-0.17,0.04-0.26c-0.1-0.2-0.21-0.41-0.31-0.61
			c-0.08,0-0.16-0.02-0.24-0.05c-0.33-0.48-0.65-0.96-0.98-1.44c-0.08-0.1-0.15-0.2-0.23-0.31c-0.53-1.06-1.06-2.12-1.58-3.19
			c0.24-0.12,0.48-0.23,0.72-0.35c0,0,0.13,0,0.13,0l0.13-0.01c0.1,0.01,0.2,0.01,0.3,0.02l0.15,0l0.15,0c0.08,0,0.16,0,0.23-0.01
			c0.12,0.2,0.24,0.4,0.36,0.6c0.12,0.19,0.24,0.38,0.37,0.57c0.08,0.1,0.15,0.21,0.23,0.31c0,0,0,0,0,0
			c0.09,0.11,0.17,0.22,0.26,0.33c0.11,0.09,0.22,0.19,0.33,0.28l-0.02-0.02c0.02,0.2,0.04,0.4,0.06,0.61
			c-0.04,0.09-0.04,0.19,0.01,0.28c0.07,0.11,0.14,0.22,0.21,0.32c0.11,0.09,0.22,0.18,0.33,0.27c-0.02,0.1-0.01,0.19,0.03,0.28
			c-0.04,0.09-0.04,0.19-0.02,0.29c0,0.11,0,0.22,0,0.33c0.08,0.1,0.15,0.19,0.23,0.29c0.1,0.1,0.19,0.21,0.29,0.31
			c0.11,0.1,0.21,0.19,0.32,0.29c0.1,0.09,0.19,0.17,0.29,0.26c0.11,0.01,0.21,0.02,0.32,0.02c0.1-0.08,0.19-0.16,0.29-0.25
			c0.03-0.04,0.05-0.09,0.06-0.13c0.72,0.97,1.44,1.94,2.27,3.07c0.12-0.1,0.41-0.29,0.6-0.55c1.99-2.84,3.92-5.73,5.96-8.54
			c2.35-3.25,4.79-6.43,7.2-9.63c1.11-1.48,2.07-3.1,3.38-4.38c1.19-1.16,2.76-1.92,4.16-2.86c0.01,0.11,0.02,0.23,0.02,0.34
			c-0.01,0.1,0,0.22-0.05,0.29c-0.7,1.01-1.56,2-0.29,3.19c0,0,0.03-0.02,0.03-0.02c-0.1,0.1-0.2,0.19-0.3,0.29
			c0,0.11-0.01,0.21-0.01,0.32c-0.16,0.1-0.33,0.19-0.49,0.29c0.02,0.07,0.05,0.13,0.07,0.2c0.04-0.07,0.07-0.14,0.11-0.21
			c0.1,0,0.21,0,0.32,0.01c0.1,0,0.2,0,0.3,0c0.1-0.1,0.2-0.2,0.29-0.3c0.08,0,0.17,0,0.25,0c-0.5,1.07-0.9,2.2-1.51,3.19
			c-1.41,2.29-2.92,4.51-4.38,6.77c-2.54,3.91-4.98,7.08-7.53,10.98c-0.37,0.56-0.71,0.83-1.1,1.38c-0.11,0-0.31,0.74-0.42,0.73
			c-0.11-0.1-0.32,0.4-0.42,0.3c-0.09,0.1-0.17,0.19-0.26,0.29c-0.1,0.1-0.21,0.2-0.31,0.29c0,0.1,0,0.2,0,0.3
			c0,0,0.01-0.01,0.01-0.01c-0.1,0.1-0.2,0.2-0.3,0.3c-0.1,0.2-0.2,0.4-0.3,0.6c0,0,0.01-0.02,0.01-0.02
			c-0.1,0.2-0.21,0.41-0.31,0.61c0,0,0.02-0.02,0.02-0.02c-0.1,0.1-0.2,0.2-0.3,0.31c-0.14,0.2-0.27,0.4-0.41,0.6
			c-0.05,0.12-0.1,0.23-0.16,0.35c0.04,0.07,0.04,0.15,0,0.22c-0.11,0.2-0.19,0.07-0.3,0.27c0,0,0.02-0.02,0.02-0.02
			c-0.1,0.1-0.19,0.21-0.29,0.31c-0.08,0.11-0.33,0.21-0.42,0.32c-0.05,0.08-0.06,0.17-0.05,0.27c-0.09,0.1-0.18,0.2-0.28,0.3
			c-0.01,0.1-0.01,0.2-0.02,0.3c-0.1,0.09-0.19,0.19-0.29,0.28c-0.01,0.1-0.01,0.2-0.02,0.31l0.02-0.02c-0.09,0.1-0.18,0.2-0.26,0.3
			c-0.02,0.1-0.03,0.21-0.05,0.31c0,0,0.02-0.02,0.02-0.02c-0.1,0.1-0.2,0.21-0.3,0.31c-0.09,0.11-0.17,0.21-0.26,0.32
			c-0.03,0.09-0.04,0.18-0.03,0.28c-0.09,0.1-0.18,0.2-0.28,0.3c-0.03,0.1-0.03,0.19-0.02,0.29c-0.11,0.1-0.22,0.19-0.33,0.29
			c-0.09,0-0.18,0-0.27,0c-0.1,0-0.2,0-0.3,0c-0.1,0.01-0.2,0.01-0.3,0.02c-0.1-0.02-0.19-0.03-0.29-0.02c0-0.1,0-0.21-0.01-0.31
			c-0.1-0.1-0.2-0.19-0.3-0.29l0.03,0.03c-0.05-0.09-0.06-0.18-0.03-0.27c-0.09-0.11-0.17-0.22-0.26-0.33
			c-0.11-0.11-0.22-0.21-0.33-0.32c0,0,0.02,0.03,0.02,0.03c-0.05-0.08-0.06-0.16-0.04-0.24c-0.15-0.21-0.3-0.43-0.45-0.64
			c-0.14-0.11-0.11-0.21-0.25-0.32c0,0,0.02,0.02,0.02,0.02c-0.09-0.1-0.19-0.2-0.28-0.29c-0.11,0-0.21-0.01-0.32-0.01l0,0
			c0-0.1,0-0.2-0.01-0.29c-0.19-0.3-0.39-0.59-0.58-0.89c0-0.1,0-0.2,0-0.3c-0.1-0.09-0.2-0.19-0.29-0.28
			c-0.01-0.1-0.02-0.2-0.02-0.31c-0.09-0.1-0.19-0.2-0.28-0.3c-0.1-0.1-0.2-0.19-0.3-0.29c0.01-0.1,0-0.19-0.02-0.28
			c-0.09-0.21-0.18-0.41-0.27-0.62c-0.13-0.09-0.25-0.17-0.38-0.26c-0.08,0.03-0.15,0.02-0.22-0.03l0.01,0.01
			c-0.1-0.19-0.2-0.39-0.3-0.58c-0.1-0.1-0.2-0.2-0.31-0.3c-0.09-0.1-0.19-0.2-0.28-0.3c0-0.11-0.01-0.21-0.01-0.32
			c-0.1-0.09-0.19-0.19-0.29-0.28l0.02,0.02c-0.1-0.1-0.2-0.19-0.3-0.29c0-0.1-0.01-0.21-0.01-0.31c-0.1-0.1-0.2-0.2-0.31-0.3
			c0,0,0.02,0.02,0.02,0.02c-0.1-0.1-0.2-0.2-0.3-0.3c-0.01-0.11-0.01-0.22-0.02-0.33c0.01-0.09,0-0.17-0.04-0.24
			c-0.08-0.11-0.16-0.21-0.25-0.32c-0.1-0.1-0.2-0.19-0.29-0.29c-0.09-0.1-0.19-0.21-0.28-0.31c-0.01-0.11-0.02-0.22-0.03-0.32
			c0.02-0.09,0-0.17-0.05-0.24c-0.08-0.1-0.15-0.21-0.23-0.31c-0.09-0.1-0.19-0.19-0.28-0.29c0.01-0.1,0-0.19-0.03-0.28
			c-0.09-0.1-0.18-0.21-0.28-0.31c-0.09-0.1-0.19-0.19-0.28-0.29c-0.2-0.39-0.4-0.78-0.6-1.17c-0.09-0.11-0.18-0.21-0.26-0.32
			c-0.04-0.1-0.08-0.19-0.11-0.29c-0.07-0.1-0.14-0.2-0.21-0.29c-0.08-0.1-0.17-0.21-0.25-0.31c-0.03-0.09-0.06-0.19-0.09-0.28
			c-0.09-0.2-0.19-0.39-0.28-0.59c-0.35-0.62-0.82-1.2-1.01-1.86c-0.17-0.55-0.7-1.58,0.74-1.37c0.02,0.1,0.04,0.19,0.08,0.28
			c0.08,0.11,0.16,0.22,0.24,0.32c0,0-0.02-0.02-0.02-0.02c0.04,0.09,0.07,0.18,0.11,0.27c0.17,0.09,0.33,0.19,0.5,0.28
			c0.1,0.11,0.2,0.22,0.3,0.32c0.09,0.1,0.18,0.19,0.26,0.29l0.12,0.01l0.12-0.01C221.46,117.01,221.58,117.11,221.7,117.22z
			 M227.42,125.02l0.06,0.05l0.01-0.07L227.42,125.02z"/>
	</g>
</g>
<g id="Layer_4" class="st67">
</g>
</svg>
